<svg width="120" height="120" viewBox="0 0 120 120" fill="none" xmlns="http://www.w3.org/2000/svg">
<g clip-path="url(#clip0_3623_552)">
<path d="M92 0H28C12.536 0 0 12.536 0 28V92C0 107.464 12.536 120 28 120H92C107.464 120 120 107.464 120 92V28C120 12.536 107.464 0 92 0Z" fill="#EFF6FF"/>
<path d="M116.5 0H3.5C1.567 0 0 1.567 0 3.5C0 5.433 1.567 7 3.5 7H116.5C118.433 7 120 5.433 120 3.5C120 1.567 118.433 0 116.5 0Z" fill="url(#paint0_linear_3623_552)"/>
<path d="M90 36H30C24.4772 36 20 40.4772 20 46V86C20 91.5228 24.4772 96 30 96H90C95.5229 96 100 91.5228 100 86V46C100 40.4772 95.5229 36 90 36Z" fill="url(#paint1_linear_3623_552)"/>
<path d="M90 36H30C24.4772 36 20 40.4772 20 46V48C20 53.5228 24.4772 58 30 58H90C95.5229 58 100 53.5228 100 48V46C100 40.4772 95.5229 36 90 36Z" fill="#1D4ED8"/>
<path d="M100 48H20V58H100V48Z" fill="#1D4ED8"/>
<path d="M34 52C36.2091 52 38 50.2091 38 48C38 45.7909 36.2091 44 34 44C31.7909 44 30 45.7909 30 48C30 50.2091 31.7909 52 34 52Z" fill="#93C5FD"/>
<path d="M47 52C49.2091 52 51 50.2091 51 48C51 45.7909 49.2091 44 47 44C44.7909 44 43 45.7909 43 48C43 50.2091 44.7909 52 47 52Z" fill="#93C5FD"/>
<path d="M60 52C62.2091 52 64 50.2091 64 48C64 45.7909 62.2091 44 60 44C57.7909 44 56 45.7909 56 48C56 50.2091 57.7909 52 60 52Z" fill="#93C5FD"/>
<path d="M84 42L92 50" stroke="white" stroke-width="3" stroke-linecap="round"/>
<path d="M92 42L84 50" stroke="white" stroke-width="3" stroke-linecap="round"/>
<path opacity="0.75" d="M61.5 66H34.5C33.1193 66 32 67.1193 32 68.5C32 69.8807 33.1193 71 34.5 71H61.5C62.8807 71 64 69.8807 64 68.5C64 67.1193 62.8807 66 61.5 66Z" fill="white"/>
<path opacity="0.4" d="M86 76H34C32.8954 76 32 76.8954 32 78C32 79.1046 32.8954 80 34 80H86C87.1046 80 88 79.1046 88 78C88 76.8954 87.1046 76 86 76Z" fill="white"/>
<path opacity="0.4" d="M74 86H34C32.8954 86 32 86.8954 32 88C32 89.1046 32.8954 90 34 90H74C75.1046 90 76 89.1046 76 88C76 86.8954 75.1046 86 74 86Z" fill="white"/>
<path d="M92 51C99.1797 51 105 45.1797 105 38C105 30.8203 99.1797 25 92 25C84.8203 25 79 30.8203 79 38C79 45.1797 84.8203 51 92 51Z" fill="#EF4444" stroke="white" stroke-width="3"/>
<path d="M93.2642 32.3636L93.0426 40.5114H90.9631L90.7358 32.3636H93.2642ZM92.0028 44.1477C91.6278 44.1477 91.3059 44.0152 91.0369 43.75C90.768 43.4811 90.6354 43.1591 90.6392 42.7841C90.6354 42.4129 90.768 42.0947 91.0369 41.8295C91.3059 41.5644 91.6278 41.4318 92.0028 41.4318C92.3627 41.4318 92.679 41.5644 92.9517 41.8295C93.2244 42.0947 93.3627 42.4129 93.3665 42.7841C93.3627 43.0341 93.2964 43.2633 93.1676 43.4716C93.0426 43.6761 92.8778 43.8409 92.6733 43.9659C92.4688 44.0871 92.2453 44.1477 92.0028 44.1477Z" fill="white"/>
<path opacity="0.5" d="M86 82C88.7614 82 91 79.7614 91 77C91 74.2386 88.7614 72 86 72C83.2386 72 81 74.2386 81 77C81 79.7614 83.2386 82 86 82Z" stroke="white" stroke-width="2.4"/>
<path opacity="0.5" d="M86 79C87.1046 79 88 78.1046 88 77C88 75.8954 87.1046 75 86 75C84.8954 75 84 75.8954 84 77C84 78.1046 84.8954 79 86 79Z" fill="white"/>
</g>
<defs>
<linearGradient id="paint0_linear_3623_552" x1="0" y1="0" x2="81.3897" y2="1395.25" gradientUnits="userSpaceOnUse">
<stop stop-color="#60A5FA"/>
<stop offset="1" stop-color="#2563EB"/>
</linearGradient>
<linearGradient id="paint1_linear_3623_552" x1="20" y1="36" x2="5780" y2="7716" gradientUnits="userSpaceOnUse">
<stop stop-color="#60A5FA"/>
<stop offset="1" stop-color="#2563EB"/>
</linearGradient>
<clipPath id="clip0_3623_552">
<rect width="120" height="120" fill="white"/>
</clipPath>
</defs>
</svg>