<svg width="120" height="120" viewBox="0 0 120 120" fill="none" xmlns="http://www.w3.org/2000/svg">
<g clip-path="url(#clip0_3623_570)">
<path d="M92 0H28C12.536 0 0 12.536 0 28V92C0 107.464 12.536 120 28 120H92C107.464 120 120 107.464 120 92V28C120 12.536 107.464 0 92 0Z" fill="#FFFBEB"/>
<path d="M116.5 0H3.5C1.567 0 0 1.567 0 3.5C0 5.433 1.567 7 3.5 7H116.5C118.433 7 120 5.433 120 3.5C120 1.567 118.433 0 116.5 0Z" fill="url(#paint0_linear_3623_570)"/>
<path d="M60 90C75.464 90 88 85.5228 88 80C88 74.4772 75.464 70 60 70C44.536 70 32 74.4772 32 80C32 85.5228 44.536 90 60 90Z" fill="#B45309"/>
<path d="M88 68H32V80H88V68Z" fill="#B45309"/>
<path d="M60 78C75.464 78 88 73.5228 88 68C88 62.4772 75.464 58 60 58C44.536 58 32 62.4772 32 68C32 73.5228 44.536 78 60 78Z" fill="#D97706"/>
<path d="M88 56H32V68H88V56Z" fill="#D97706"/>
<path d="M60 66C75.464 66 88 61.5228 88 56C88 50.4772 75.464 46 60 46C44.536 46 32 50.4772 32 56C32 61.5228 44.536 66 60 66Z" fill="#F59E0B"/>
<path d="M88 44H32V56H88V44Z" fill="#F59E0B"/>
<path d="M60 54C75.464 54 88 49.5228 88 44C88 38.4772 75.464 34 60 34C44.536 34 32 38.4772 32 44C32 49.5228 44.536 54 60 54Z" fill="#FDE68A"/>
<path d="M59.5613 54.6364V38.2727H60.6096V54.6364H59.5613ZM62.3419 43.674C62.2907 43.1584 62.0713 42.7578 61.6835 42.4723C61.2957 42.1868 60.7694 42.044 60.1047 42.044C59.653 42.044 59.2716 42.108 58.9605 42.2358C58.6494 42.3594 58.4108 42.532 58.2446 42.7536C58.0827 42.9751 58.0017 43.2266 58.0017 43.5078C57.9932 43.7422 58.0422 43.9467 58.1487 44.1214C58.2595 44.2962 58.4108 44.4474 58.6025 44.5753C58.7943 44.6989 59.0159 44.8075 59.2673 44.9013C59.5187 44.9908 59.7872 45.0675 60.0727 45.1314L61.2488 45.4126C61.8199 45.5405 62.344 45.7109 62.8213 45.924C63.2986 46.1371 63.7119 46.3991 64.0613 46.7102C64.4108 47.0213 64.6814 47.3878 64.8731 47.8097C65.0692 48.2315 65.1693 48.7152 65.1736 49.2607C65.1693 50.0618 64.9648 50.7564 64.5599 51.3445C64.1594 51.9283 63.5798 52.3821 62.8213 52.706C62.067 53.0256 61.1572 53.1854 60.0919 53.1854C59.0351 53.1854 58.1146 53.0234 57.3305 52.6996C56.5507 52.3757 55.9413 51.8963 55.5024 51.2614C55.0677 50.6222 54.8398 49.8317 54.8184 48.8899H57.4967C57.5265 49.3288 57.6523 49.6953 57.8738 49.9893C58.0997 50.2791 58.4001 50.4986 58.7751 50.6477C59.1544 50.7926 59.5827 50.8651 60.0599 50.8651C60.5287 50.8651 60.9356 50.7969 61.2808 50.6605C61.6302 50.5241 61.9008 50.3345 62.0926 50.0916C62.2844 49.8487 62.3802 49.5696 62.3802 49.2543C62.3802 48.9602 62.2929 48.7131 62.1182 48.5128C61.9477 48.3125 61.6963 48.142 61.3639 48.0014C61.0358 47.8608 60.6331 47.733 60.1558 47.6179L58.7304 47.2599C57.6267 46.9915 56.7552 46.5717 56.116 46.0007C55.4768 45.4297 55.1594 44.6605 55.1636 43.6932C55.1594 42.9006 55.3703 42.2081 55.7964 41.6158C56.2268 41.0234 56.817 40.5611 57.567 40.2287C58.317 39.8963 59.1693 39.7301 60.1238 39.7301C61.0954 39.7301 61.9434 39.8963 62.6679 40.2287C63.3966 40.5611 63.9633 41.0234 64.3682 41.6158C64.773 42.2081 64.9818 42.8942 64.9946 43.674H62.3419Z" fill="#92400E"/>
<path opacity="0.4" d="M49.0265 43.8221C52.6593 42.4999 55.1449 40.1659 54.5782 38.6089C54.0116 37.052 50.6072 36.8617 46.9743 38.184C43.3415 39.5062 40.8559 41.8403 41.4225 43.3972C41.9892 44.9541 45.3936 45.1444 49.0265 43.8221Z" fill="white"/>
<path d="M80 36L88 26L96 36" stroke="#92400E" stroke-width="4" stroke-linecap="round" stroke-linejoin="round"/>
<path d="M88 26V42" stroke="#92400E" stroke-width="4" stroke-linecap="round"/>
</g>
<defs>
<linearGradient id="paint0_linear_3623_570" x1="0" y1="0" x2="81.3897" y2="1395.25" gradientUnits="userSpaceOnUse">
<stop stop-color="#F59E0B"/>
<stop offset="1" stop-color="#D97706"/>
</linearGradient>
<clipPath id="clip0_3623_570">
<rect width="120" height="120" fill="white"/>
</clipPath>
</defs>
</svg>