<svg width="35" height="35" viewBox="0 0 35 35" fill="none" xmlns="http://www.w3.org/2000/svg">
<g clip-path="url(#clip0_3581_3759)">
<path d="M28 0H7C3.13401 0 0 3.13401 0 7V28C0 31.866 3.13401 35 7 35H28C31.866 35 35 31.866 35 28V7C35 3.13401 31.866 0 28 0Z" fill="url(#paint0_linear_3581_3759)"/>
<path d="M17.5 3.5L27.125 7.875V20.125L17.5 29.75L7.875 20.125V7.875L17.5 3.5Z" fill="url(#paint1_linear_3581_3759)"/>
<path d="M7.875 7.875H10.5V19.25L17.5 28.875L7.875 20.125V7.875Z" fill="url(#paint2_linear_3581_3759)"/>
<path d="M17.5 4.8125L25.8125 8.75V19.6875L17.5 28.4375L9.1875 19.6875V8.75L17.5 4.8125Z" fill="url(#paint3_linear_3581_3759)"/>
<mask id="mask0_3581_3759" style="mask-type:luminance" maskUnits="userSpaceOnUse" x="0" y="0" width="18" height="29">
<path d="M16.7718 0C17.8539 3.56923 15.1487 6.24615 17.3128 9.81538C19.4769 13.3846 15.6898 16.0615 17.3128 19.6308C18.9359 23.2 16.7718 26.7692 16.7718 29H0V0H16.7718Z" fill="white"/>
</mask>
<g mask="url(#mask0_3581_3759)">
<path d="M16.8321 4.8125L24.8272 8.75V19.6875L16.8321 28.4375L8.83691 19.6875V8.75L16.8321 4.8125Z" fill="url(#paint4_linear_3581_3759)"/>
</g>
</g>
<defs>
<linearGradient id="paint0_linear_3581_3759" x1="0" y1="0" x2="3500" y2="3500" gradientUnits="userSpaceOnUse">
<stop stop-color="#182450"/>
<stop offset="1" stop-color="#090F2C"/>
</linearGradient>
<linearGradient id="paint1_linear_3581_3759" x1="392.875" y1="3.49996" x2="2142.53" y2="2141.97" gradientUnits="userSpaceOnUse">
<stop stop-color="white"/>
<stop offset="0.28" stop-color="#E4E7F0"/>
<stop offset="0.62" stop-color="#BAC0D5"/>
<stop offset="1" stop-color="#8A90A4"/>
</linearGradient>
<linearGradient id="paint2_linear_3581_3759" x1="7.875" y1="7.875" x2="970.375" y2="7.875" gradientUnits="userSpaceOnUse">
<stop stop-color="white" stop-opacity="0.45"/>
<stop offset="1" stop-color="white" stop-opacity="0"/>
</linearGradient>
<linearGradient id="paint3_linear_3581_3759" x1="1671.69" y1="4.8125" x2="-552.097" y2="1569.7" gradientUnits="userSpaceOnUse">
<stop stop-color="#F0F2F8"/>
<stop offset="1" stop-color="#C8CCDA"/>
</linearGradient>
<linearGradient id="paint4_linear_3581_3759" x1="8.83691" y1="4.8125" x2="8.83691" y2="2367.31" gradientUnits="userSpaceOnUse">
<stop stop-color="#9B73FF"/>
<stop offset="1" stop-color="#9E1410"/>
</linearGradient>
<clipPath id="clip0_3581_3759">
<rect width="35" height="35" fill="white"/>
</clipPath>
</defs>
</svg>
