<svg width="128" height="128" viewBox="0 0 128 128" fill="none" xmlns="http://www.w3.org/2000/svg">
<rect width="128" height="128" fill="#2E182F"/>
<path d="M100.142 77.8253C96.5439 81.5453 92.5865 84.5831 88.4846 87.4369C87.4646 88.1465 86.7226 88.2019 85.5982 87.4794C79.3141 83.442 73.9166 78.3708 69.1926 72.467C67.6219 70.504 67.6158 70.5216 68.9421 68.4246C70.0363 66.6947 71.1093 64.9501 72.3479 62.9612C73.5609 64.771 74.4945 66.4115 75.6266 67.9018C78.5512 71.7519 82.0964 74.87 85.852 77.7567C86.4454 78.2128 87.051 78.5285 87.7681 77.9795C92.5477 74.3194 97.102 70.4214 99.8794 64.7527C101.325 61.8022 101.515 58.7771 99.8774 55.8183C97.9279 52.2955 93.8689 51.465 90.6547 53.8329C89.2671 54.8552 88.3861 56.3807 87.2318 57.5559C86.4284 57.5026 86.1988 56.8473 85.8282 56.3962C84.837 55.1898 83.832 54 82.4528 53.2662C79.66 51.7803 76.5777 52.5401 74.4911 55.2676C71.7788 58.8132 69.7663 62.8509 67.3417 66.6005C64.8567 70.4437 62.5058 74.379 59.5294 77.8529C54.8302 83.3376 49.0866 86.6444 42.0133 86.8542C30.5086 87.1955 22.0208 79.0082 19.7136 69.3028C16.4485 55.5681 24.7048 42.5148 38.0032 40.2975C43.5819 39.3673 48.8102 40.638 53.6172 43.8371C56.0909 45.4834 55.4876 45.6419 57.6058 43.5267C57.9079 43.225 58.277 42.9973 58.9878 42.4465C59.9472 47.8858 60.8535 53.0243 61.8439 58.6396C56.6516 57.2667 51.8991 56.0102 47.0509 54.7283C47.597 53.069 49.1059 52.5621 49.6947 51.0886C47.8981 49.4546 45.7444 48.6919 43.4492 48.3002C33.7689 46.6485 24.9256 56.4403 27.0147 66.4813C29.2227 77.094 40.8356 81.9912 49.631 76.0024C52.9579 73.7372 55.3388 70.5216 57.5858 67.1656C61.1559 61.8335 64.1543 56.1099 67.8657 50.8699C72.1797 44.779 79.6494 42.3449 86.073 45.9874C87.0157 46.5219 87.7127 46.0576 88.4942 45.6939C94.7048 42.8036 101.929 44.5089 105.741 50.2291C109.749 56.2444 109.726 62.7563 106.613 69.2238C105.042 72.4887 102.626 75.1259 100.142 77.8253Z" fill="url(#paint0_linear_3796_899)"/>
<defs>
<linearGradient id="paint0_linear_3796_899" x1="19" y1="19.2456" x2="66.9939" y2="85.7847" gradientUnits="userSpaceOnUse">
<stop stop-color="#4B0082"/>
<stop offset="0.923087" stop-color="#96588A"/>
</linearGradient>
</defs>
</svg>
