<svg width="256" height="256" viewBox="0 0 256 256" fill="none" xmlns="http://www.w3.org/2000/svg">
<rect width="256" height="256" fill="#5034FC"/>
<path d="M199.501 155.651C192.333 163.091 184.45 169.166 176.278 174.874C174.246 176.293 172.768 176.404 170.528 174.959C158.009 166.884 147.256 156.742 137.845 144.934C134.715 141.008 134.703 141.043 137.346 136.849C139.525 133.389 141.663 129.9 144.131 125.922C146.547 129.542 148.407 132.823 150.662 135.804C156.489 143.504 163.552 149.74 171.033 155.513C172.216 156.426 173.422 157.057 174.85 155.959C184.372 148.639 193.445 140.843 198.979 129.505C201.858 123.604 202.236 117.554 198.975 111.637C195.091 104.591 187.004 102.93 180.601 107.666C177.837 109.71 176.082 112.761 173.782 115.112C172.182 115.005 171.724 113.695 170.986 112.792C169.011 110.38 167.009 108 164.261 106.532C158.698 103.561 152.557 105.08 148.4 110.535C142.997 117.626 138.987 125.702 134.157 133.201C129.207 140.887 124.523 148.758 118.594 155.706C109.232 166.675 97.7897 173.289 83.6985 173.708C60.7788 174.391 43.8696 158.016 39.2732 138.606C32.7685 111.136 49.2166 85.0297 75.7095 80.5949C86.8232 78.7346 97.2391 81.2761 106.815 87.6742C111.744 90.9667 110.542 91.2838 114.761 87.0534C115.363 86.45 116.099 85.9945 117.515 84.8929C119.426 95.7715 121.232 106.049 123.205 117.279C112.861 114.533 103.393 112.02 93.7342 109.457C94.8221 106.138 97.8283 105.124 99.0011 102.177C95.4221 98.9092 91.1314 97.3837 86.5589 96.6004C67.2739 93.297 49.6565 112.881 53.8183 132.963C58.2171 154.188 81.3522 163.982 98.8743 152.005C105.502 147.474 110.245 141.043 114.722 134.331C121.834 123.667 127.807 112.22 135.201 101.74C143.795 89.558 158.677 84.6898 171.473 91.9748C173.352 93.0439 174.74 92.1153 176.297 91.3879C188.67 85.6073 203.063 89.0179 210.656 100.458C218.641 112.489 218.595 125.513 212.393 138.448C209.263 144.977 204.45 150.252 199.501 155.651Z" fill="url(#paint0_linear_3822_1372)"/>
<defs>
<linearGradient id="paint0_linear_3822_1372" x1="37.8516" y1="38.4912" x2="133.957" y2="171.213" gradientUnits="userSpaceOnUse">
<stop stop-color="white"/>
<stop offset="0.923087" stop-color="white"/>
</linearGradient>
</defs>
</svg>
